# xmcd
#
# Track frame offsets:
#	150
#	27830
#	43812
#	62727
#	83647
#	106020
#	114885
#	130645
#	152932
#	157885
#
# Disc length: 2571 seconds
#
# Revision: 0
# Processed by: cddbd v1.5PL3 Copyright (c) Steve Scherf et al.
# Submitted via: dBpowerAMP V4.0
#
DISCID=6d0a090a
DTITLE=The Rectifiers - Wear the Weight of the Resting Sky
DYEAR=2003
DGENRE=Country
TTITLE0=Sun Breaks Through
TTITLE1=Levy
TTITLE2=Beautiful Bird
TTITLE3=A Quiet Life
TTITLE4=Breathe In
TTITLE5=Last Days of the Sunseeker
TTITLE6=Shake the Last Light
TTITLE7=This Peace Between Us
TTITLE8=Return of the Sunseeker
TTITLE9=Wear the Weight of the Resting Sky
EXTD=
EXTT0=
EXTT1=
EXTT2=
EXTT3=
EXTT4=
EXTT5=
EXTT6=
EXTT7=
EXTT8=
EXTT9=
PLAYORDER=
